<?xml version="1.0" encoding="UTF-8"?> <!-- Generator: Adobe Illustrator 24.0.2, SVG Export Plug-In . SVG Version: 6.00 Build 0) --> <svg xmlns="http://www.w3.org/2000/svg" xmlns:xlink="http://www.w3.org/1999/xlink" version="1.2" id="Layer_1" x="0px" y="0px" viewBox="0 0 512 512" xml:space="preserve"> <g> <g> <path fill="#674002" d="M470.7,165.2h-40.8c6.4-14,14.9-26.7,25.1-38.2c5.9,3.7,12.6,5.8,19.7,5.8c10,0,19.3-3.9,26.4-11 c14.5-14.6,14.5-38.3,0-52.9L443.6,11c-7-7.1-16.4-11-26.4-11c-10,0-19.3,3.9-26.4,11c-12.4,12.5-14.1,31.6-5.3,46 c-14.5,13-31,23.2-49.3,30.1c-23.3,8.7-44.1,22.1-61.7,39.7l-38.4,38.4h-22.2c30.2-19,50.4-52.6,50.4-90.8c0-4.6-3.7-8.3-8.3-8.3 h-41.3V8.3c0-4.6-3.7-8.3-8.3-8.3c-38.2,0-71.7,20.1-90.7,50.2C89.2,18.6,49.9,0,8.3,0C3.7,0,0,3.7,0,8.3v33 c0,52.8,29.4,99.9,74.3,123.9h-33C18.5,165.2,0,183.7,0,206.5c0,16.9,10.2,31.4,24.8,37.8v3.5c0,83,44.9,160.1,117.2,201.1 c2.4,1.3,4.1,3.7,4.8,6.3c0.3,1.5,0.5,3.6-0.9,5.7c-4,6.1-5.9,13.1-5.4,20.4c1.2,17.2,16.3,30.7,34.3,30.7h162.5 c18,0,33.1-13.5,34.3-30.7c0.5-7.3-1.4-14.4-5.4-20.4c-1.4-2.1-1.2-4.3-0.9-5.7c0.6-2.6,2.4-4.9,4.8-6.3 c72.3-41,117.2-118.1,117.2-201.1v-3.5c14.6-6.4,24.8-20.9,24.8-37.8C512,183.7,493.5,165.2,470.7,165.2z M402.5,22.6 c3.9-3.9,9.1-6.1,14.7-6.1c5.5,0,10.8,2.2,14.7,6.1l57.5,57.8c8.1,8.2,8.1,21.5,0,29.6c-7.9,7.9-21.5,7.9-29.4,0l-57.5-57.8 C394.4,44.1,394.4,30.8,402.5,22.6z M396.3,69.4l46.3,46.6c-5.4,6.1-10.4,12.5-14.9,19.2l-50.7-50.7 C383.7,80,390.1,74.9,396.3,69.4z M286.1,138.5c15.9-15.9,34.7-28,55.8-35.9c7-2.6,13.8-5.9,20.4-9.3l56.7,56.7 c-2.6,4.9-4.9,10-7.1,15.2H259.4L286.1,138.5z M214.3,82.6h33.1c-4,43.6-38.8,78.4-82.4,82.2C192.6,147.1,211.6,117.1,214.3,82.6z M115.6,107.4c0-47.3,36.3-86.3,82.6-90.5v57.4c0,43.8-31.2,80.4-72.5,88.9l15.1-19.4c21-27,35.1-59.1,40.7-92.9l-16.3-2.7 c-5.2,31.1-18.1,60.6-37.5,85.5l-12.2,15.7V107.4z M16.5,41.3V16.8c35.9,2.4,69.1,20.5,90.8,49.5c-4.4,10.6-7.1,22.1-7.9,34.1 c-20-14.7-36.3-33.9-47.5-56.3l-3.2-6.5L33.9,45l3.2,6.5c14.1,28.2,35.5,51.7,62,68.6v38C50,140.8,16.5,94.2,16.5,41.3z M361.9,434.5c-6.4,3.6-11,9.7-12.7,16.8c-1.6,6.6-0.4,13.2,3.2,18.7c2,3,2.9,6.5,2.7,10.2c-0.6,8.5-8.6,15.3-17.8,15.3H174.7 c-9.2,0-17.2-6.9-17.8-15.3c-0.2-3.7,0.7-7.2,2.7-10.2c3.6-5.5,4.8-12.1,3.2-18.7c-1.7-7-6.3-13.2-12.7-16.8 C83,396.4,41.3,324.8,41.3,247.7h429.4C470.7,324.8,429,396.4,361.9,434.5z M470.7,231.2H41.3c-13.7,0-24.8-11.1-24.8-24.8 c0-13.7,11.1-24.8,24.8-24.8h429.4c13.7,0,24.8,11.1,24.8,24.8C495.5,220.1,484.4,231.2,470.7,231.2z"></path> </g> <path fill="#674002" d="M451.2,282.2l-16.3-2.9c-10,57.3-47.4,106.6-100,132l7.2,14.9C399.5,398.6,440.2,344.7,451.2,282.2 L451.2,282.2z M451.2,282.2"></path> <rect x="57.8" y="264.3" fill="#674002" width="198.2" height="16.5"></rect> <rect x="272.5" y="264.3" fill="#674002" width="16.5" height="16.5"></rect> </g> </svg> 