<?xml version="1.0" encoding="UTF-8"?> <!-- Generator: Adobe Illustrator 24.0.2, SVG Export Plug-In . SVG Version: 6.00 Build 0) --> <svg xmlns="http://www.w3.org/2000/svg" xmlns:xlink="http://www.w3.org/1999/xlink" version="1.2" id="Layer_1" x="0px" y="0px" viewBox="0 0 512 512" xml:space="preserve"> <path d="M422,482"></path> <rect x="2.7" y="0" fill="none" width="506.7" height="512"></rect> <g> <g> <path fill="#86D2E0" d="M486.4,153.6H315.7c-4.7,0-8.5,3.8-8.5,8.5v34.1c0,0,0,0.1,0,0.1c0,0.1,0,0.3,0,0.4c0,0.2,0,0.3,0,0.5 c0,0,0,0.1,0,0.1l15.7,118c-17.2-1.3-22.5-6-24-8.1c-1.1-1.6-1.5-3.6-0.9-5.5c1.2-2.6,0.9-5.6-0.6-7.9c-1.6-2.4-4.4-3.8-7.3-3.8 c-17,0-30.1,3.3-40.8,8.2l6.6-49.8c0-0.4,0.1-0.7,0.1-1.1c0-41.7-23.4-79.9-60.5-98.8c0.7-1.6,1-3.3,0.7-5l-8.5-51.2 c-0.7-4.1-4.2-7.1-8.4-7.1h-8.5V51.2h59.7c4.7,0,8.5-3.8,8.5-8.5V8.5c0-2.4-1-4.6-2.7-6.2c-1.7-1.6-4-2.4-6.4-2.3l-128,8.5 c-3.5,0.2-6.4,2.5-7.5,5.8L85.8,40c-0.9,2.6-0.4,5.5,1.2,7.7c1.6,2.2,4.2,3.5,6.9,3.5h8.5v34.1h-8.5c-4.2,0-7.7,3-8.4,7.1 l-8.5,51.2c-0.3,1.7,0,3.4,0.7,5c-37.1,19-60.5,57.1-60.5,98.8c0,0.4,0,0.8,0.1,1.1l32.2,241.2C51,502.5,61.9,512,74.7,512h360.5 c14.1,0,25.6-11.5,25.6-25.6v-33.6l34.1-255.4c0,0,0-0.1,0-0.1c0-0.2,0-0.3,0-0.5c0-0.1,0-0.3,0-0.4c0,0,0-0.1,0-0.1v-34.1 C494.9,157.4,491.1,153.6,486.4,153.6z M281.1,307.6c0.5,3.2,1.8,6.3,3.6,9c7.2,10.7,23.4,16.2,48.1,16.2c6.4,0,10.8,2.5,13.9,8 c0.1,0.2,0.2,0.4,0.3,0.6H218.7c3.6-2.8,7.1-5.7,10.5-8.6C243.1,320.9,256.3,309.8,281.1,307.6z M349.9,358.4v17.1H179.2v-17.1 H349.9z M108.7,25.2l113.2-7.5v16.5H105.7L108.7,25.2z M153.6,51.2v34.1h-34.1V51.2H153.6z M101.1,102.4H172l5.7,34.1H95.4 L101.1,102.4z M137.7,494.9h-63c-4.3,0-7.9-3.2-8.5-7.4L34.1,246.9c0.4-51.6,42.3-93.3,93.9-93.3h17.1 c51.6,0.1,93.5,41.7,93.9,93.3l-8.4,62.7c-4.4,3.3-8.4,6.7-12.4,10c-13.7,11.6-25.6,21.7-47.5,21.7c-4.7,0-8.5,3.8-8.5,8.5v25.6 H161c-13.5,0-24.5,11-24.5,24.5v87.5C136.5,490,136.9,492.5,137.7,494.9z M375.5,487.5c0,4.1-3.3,7.4-7.4,7.4h-1.1H161 c-4.1,0-7.4-3.3-7.4-7.4V400c0-4.1,3.3-7.4,7.4-7.4h207c4.1,0,7.4,3.3,7.4,7.4V487.5z M443.7,486.4c0,4.7-3.8,8.5-8.5,8.5h-43.8 c0.8-2.4,1.2-4.9,1.2-7.4v-26.7h51.2V486.4z M444.8,443.7h-52.3V400c0-13.5-11-24.5-24.5-24.5h-1.1v-25.6c0-0.2,0-0.5,0-0.7 c0,0,0-0.1,0-0.2v0c-0.6-5.6-2.3-11-5-16c-4.3-8.5-12.2-14.5-21.5-16.5l-14.9-111.7h151.2L444.8,443.7z M477.9,187.7H324.3v-17.1 h153.6V187.7z"></path> </g> <path fill="#86D2E0" d="M264.5,409.6c-13.8,0-26.2,8.3-31.5,21.1c-5.3,12.8-2.4,27.4,7.4,37.2c9.8,9.8,24.4,12.7,37.2,7.4 c12.8-5.3,21.1-17.7,21.1-31.5C298.6,424.9,283.4,409.6,264.5,409.6L264.5,409.6z M264.5,460.8c-6.9,0-13.1-4.2-15.8-10.5 c-2.6-6.4-1.2-13.7,3.7-18.6c4.9-4.9,12.2-6.3,18.6-3.7c6.4,2.6,10.5,8.9,10.5,15.8C281.6,453.2,274,460.8,264.5,460.8L264.5,460.8 z M264.5,460.8"></path> <path fill="#86D2E0" d="M401.1,290.1c24.3,0,42.7-11,42.7-25.6s-18.3-25.6-42.7-25.6c-24.3,0-42.7,11-42.7,25.6 S376.7,290.1,401.1,290.1L401.1,290.1z M401.1,256c16.5,0,25.6,6.4,25.6,8.5s-9.1,8.5-25.6,8.5c-16.5,0-25.6-6.4-25.6-8.5 S384.5,256,401.1,256L401.1,256z M401.1,256"></path> <path fill="#86D2E0" d="M85.3,281.6h102.4c4.7,0,8.5-3.8,8.5-8.5v-51.2c0-4.7-3.8-8.5-8.5-8.5H85.3c-4.7,0-8.5,3.8-8.5,8.5v51.2 C76.8,277.8,80.6,281.6,85.3,281.6L85.3,281.6z M93.9,230.4h85.3v34.1H93.9V230.4z M93.9,230.4"></path> </g> </svg> 