<?xml version="1.0" encoding="UTF-8"?> <!-- Generator: Adobe Illustrator 24.0.2, SVG Export Plug-In . SVG Version: 6.00 Build 0) --> <svg xmlns="http://www.w3.org/2000/svg" xmlns:xlink="http://www.w3.org/1999/xlink" version="1.2" id="Layer_1" x="0px" y="0px" viewBox="0 0 512 512" xml:space="preserve"> <path d="M422,482"></path> <rect x="2.7" y="0" fill="none" width="506.7" height="512"></rect> <g> <path fill="#AB2841" d="M503.9,213.8L434,152.1V54c0-8.3-6.7-15-15-15h-60c-8.3,0-15,6.7-15,15v18.7L265.9,3.7 c-5.7-5-14.2-5-19.8,0l-238,210c-6.2,5.5-6.8,15-1.3,21.2c5.5,6.2,15,6.8,21.2,1.3L60,207.9V482H46c-8.3,0-15,6.7-15,15 c0,8.3,6.7,15,15,15h420c8.3,0,15-6.7,15-15c0-8.3-6.7-15-15-15h-14V207.9l32.1,28.3c2.8,2.5,6.4,3.7,9.9,3.7 c4.2,0,8.3-1.7,11.3-5.1C510.7,228.7,510.1,219.2,503.9,213.8z M374,69h30v56.6l-30-26.5V69z M422,482H90V181.5L256,35l166.2,146.6 C422.1,182.4,422,482,422,482z"></path> <path fill="#AB2841" d="M305.9,214c-19.2,0-36.9,7.6-49.9,20.6c-13-13.1-30.7-20.6-49.9-20.6c-38.9,0-70.5,31.6-70.5,70.5 c0,36.4,29.6,73.4,47.3,92.2c20.6,22,52.1,47.6,73.2,47.6c20.2,0,51.2-22.8,73-45.3c17.7-18.3,47.4-55,47.4-94.5 C376.4,245.6,344.8,214,305.9,214L305.9,214z M307.6,358C284.4,382,262,394.3,256,394.4c-5.9-0.3-28.3-13.5-51.9-38.8 c-24.1-25.9-38.6-52.5-38.6-71.1c0-22.3,18.2-40.5,40.5-40.5c15.6,0,29.6,8.7,36.4,22.8c2.5,5.2,7.7,8.4,13.5,8.4 c5.7,0,11-3.3,13.5-8.4c6.8-14.1,20.8-22.8,36.4-22.8c22.3,0,40.5,18.2,40.5,40.5C346.4,305.6,332.3,332.4,307.6,358L307.6,358z M307.6,358"></path> </g> </svg> 