<?xml version="1.0" encoding="UTF-8"?> <!-- Generator: Adobe Illustrator 24.0.2, SVG Export Plug-In . SVG Version: 6.00 Build 0) --> <svg xmlns="http://www.w3.org/2000/svg" xmlns:xlink="http://www.w3.org/1999/xlink" version="1.2" id="Layer_1" x="0px" y="0px" viewBox="0 0 512 512" xml:space="preserve"> <path d="M422,482"></path> <rect x="2.7" y="0" fill="none" width="506.7" height="512"></rect> <g> <path fill="#6F4AB9" d="M226.2,392.5h-17.1c-4.7,0-8.5,3.8-8.5,8.5c0,4.7,3.8,8.5,8.5,8.5h17.1c4.7,0,8.5-3.8,8.5-8.5 C234.7,396.4,230.9,392.5,226.2,392.5L226.2,392.5z M226.2,392.5"></path> <path fill="#6F4AB9" d="M507.8,452.3c0-23.6-19.1-42.7-42.7-42.7c-23.6,0-42.7,19.1-42.7,42.7c0,23.6,19.1,42.7,42.7,42.7 C488.7,494.9,507.8,475.8,507.8,452.3L507.8,452.3z M439.5,452.3c0-14.1,11.5-25.6,25.6-25.6c14.1,0,25.6,11.5,25.6,25.6 c0,14.1-11.5,25.6-25.6,25.6C451,477.9,439.5,466.4,439.5,452.3L439.5,452.3z M439.5,452.3"></path> <path fill="#6F4AB9" d="M396.9,452.3c0-14.1-11.5-25.6-25.6-25.6c-14.1,0-25.6,11.5-25.6,25.6c0,14.1,11.5,25.6,25.6,25.6 C385.4,477.9,396.9,466.4,396.9,452.3L396.9,452.3z M362.7,452.3c0-4.7,3.8-8.5,8.5-8.5c4.7,0,8.5,3.8,8.5,8.5s-3.8,8.5-8.5,8.5 C366.5,460.8,362.7,457,362.7,452.3L362.7,452.3z M362.7,452.3"></path> <g> <path fill="#6F4AB9" d="M480.4,287.1c4.8-13.7-1-28.9-13.7-35.9c-12.7-7-28.6-3.9-37.7,7.5c-9.1,11.3-8.6,27.6,1,38.4 c-3.3,4.4-5.6,9.4-6.8,14.8c-7-3.1-14.5-4.7-22.2-4.7c-12.1,0-8.4,3-11.2-2.1c14.8-11.1,29.5-31.9,29.5-70.4 c0-21.9-3.9-48.7-25.5-51.8c30.7-47.5,42.9-104.7,34.5-160.6L425,6.7c-0.9-3.9-4.4-6.7-8.4-6.7h-398c-4,0-7.5,2.8-8.3,6.7 L6.8,22.9c-8.3,55.8,4,112.7,34.6,160C20,186.3,16.2,213,16.2,234.7c0,62.1,37.9,78.2,55.8,82.3c5,17.5,11.9,34.3,20.5,50.3 c-9,11.1-22.7,17.3-37,16.6c-4.7,0-8.5,3.8-8.5,8.5c0,4.7,3.8,8.5,8.5,8.5c50.3,0,51.2,57.3,51.2,59.7v0.1c0,4.7,3.9,8.5,8.6,8.5 c4.7,0,8.5-3.9,8.5-8.6c0.4-13.8,4.2-27.2,11.3-39c23.1,20,52.7,30.8,83.3,30.5c44.6,0,81.6-20.3,110.3-60.4 c8.1,1.3,16.5,0.7,24.4-1.5c13,22.5,39.8,33,64.6,25.2c24.8-7.7,40.9-31.6,38.8-57.5c18,2.2,35.1-8.5,40.9-25.7 C503,315.2,496,296.3,480.4,287.1z M452.3,264.5c7.1,0,12.8,5.7,12.8,12.8c0,7.1-5.7,12.8-12.8,12.8c-7.1,0-12.8-5.7-12.8-12.8 C439.5,270.3,445.3,264.5,452.3,264.5z M402.4,234.7c0,26.3-7.6,45.3-22.5,56.6c-2.4-2.4-4.9-4.7-7.7-6.7c4.6-26.9,7-54,7.2-81.3 c4.1-2.3,10.5-5.1,14.4-2.9C395.8,201.6,402.4,207.4,402.4,234.7z M409.8,17.1c11.5,57.8-1.7,117.8-36.3,165.5 C329.6,104.6,265,44.9,214,17.1H409.8z M288.2,96.3c-54.5-5.9-89,5.2-125.8-15.2c16.9-15.9,35.4-30.1,55.2-42.2 C243.6,54.9,267.3,74.2,288.2,96.3z M33.2,234.7c0-27.2,6.6-33.1,8.6-34.2c4.2-2.4,11.9,1,15.5,3.5c0.3,31.5,3.6,62.8,9.7,93.7 C51.9,291.4,33.2,275.4,33.2,234.7z M61.8,182.6C27.1,134.9,14,74.9,25.5,17.1h116.4c-19,12.6-36,28.1-50.3,45.9 c-2.9,3.7-2.3,9.1,1.3,12c3.7,2.9,9.1,2.3,12-1.3C124,50,148,31,175.3,17.8c8.7,3.4,17.2,7.3,25.4,11.6 C129,75.4,83.3,144.3,61.8,182.6z M115.3,422.2c-5.3-12.3-14.4-22.7-25.8-29.6c11.4-7.1,20.3-17.4,25.8-29.6 c5.4,12.3,14.4,22.7,25.8,29.6C129.7,399.6,120.7,409.9,115.3,422.2z M218.3,435.2c-26.2,0.3-51.5-8.9-71.5-25.8 c8.3-5.7,18.1-8.6,28.2-8.3c4.7,0,8.5-3.8,8.5-8.5c0-4.7-3.8-8.5-8.5-8.5c-50.3,0-51.2-57.3-51.2-59.7v-0.1c0-4.7-3.9-8.5-8.6-8.5 c-4.7,0-8.5,3.9-8.5,8.6c-0.2,8.4-1.7,16.8-4.4,24.8c-22.4-46.9-27.6-100.6-28.1-153.6c20.5-37.2,45.9-71.5,75.5-102 c20.7,12.3,44.5,18.4,68.6,17.8c41.5,0,68.4,0.3,88.5,5.6c21.5,25.1,40.1,52.5,55.7,81.6c-0.1,26.1-2.1,52.1-6.1,77.9 c-29.9-10.4-62.8,4.4-74.8,33.7c-12,29.3,1,62.9,29.6,76.5C286.4,418.7,255.3,435.2,218.3,435.2z M337.1,375.5 c-23.6,0-42.6-19.1-42.7-42.7c0-23.6,19.1-42.7,42.7-42.7c23.6,0,42.7,19.1,42.7,42.7C379.8,356.4,360.7,375.5,337.1,375.5z M411.9,399.4c-16.3,4.8-33.9-1.8-43.1-16.1c19.9-12.4,30.7-35.4,27.4-58.7c10.9-1.4,22,1.9,30.3,9.2c8.3,7.3,13,17.8,13,28.8 C439.5,379.7,428.2,394.6,411.9,399.4z M472.5,337.9c-6.5,4.1-14.7,4.4-21.4,0.8c-2.8-5.8-6.6-11.1-11.2-15.6 c-0.2-1-0.4-2.1-0.4-3.1c0-5.1,1.9-10.1,5.2-13.9c8.9,2.5,18.4,0.6,25.6-5.1c6.9,3.4,11.5,10.2,11.9,17.8 C482.7,326.5,479,333.8,472.5,337.9z"></path> <path fill="#6F4AB9" d="M110.5,185c2.6,1.7,5.8,1.9,8.6,0.5v0c8.9-4.5,19.2-5.2,28.7-2l33.1,11c4.5,1.5,9.3-0.9,10.8-5.4 c1.5-4.5-0.9-9.3-5.4-10.8l-33.1-11c-13.7-4.6-28.7-3.5-41.7,3c-2.7,1.3-4.6,4.1-4.8,7.1C106.5,180.4,108,183.3,110.5,185z"></path> <path fill="#6F4AB9" d="M251.8,194.9c2,0,0,0.5,35.8-11.5c9.4-3.2,19.8-2.5,28.7,2c2.7,1.4,6,1.2,8.6-0.5c2.6-1.7,4-4.6,3.8-7.7 c-0.2-3.1-2-5.8-4.8-7.1c-12.9-6.5-28-7.6-41.7-3l-33.1,11c-4,1.3-6.4,5.3-5.7,9.4C244.1,191.8,247.6,194.9,251.8,194.9z"></path> <path fill="#6F4AB9" d="M183,227.7c-1.5-4.5-6.3-6.8-10.8-5.3c-0.3,0.1-29.4,9.6-51.9-7.3c-3.4-2.5-8.1-2.2-11.1,0.8 c-3,3.1-6.9,5.2-11.1,6.1c-4.7,0-8.5,3.8-8.5,8.5c0,4.7,3.8,8.5,8.5,8.5c6.4-0.3,12.5-2.6,17.6-6.5c1.3,0.8,2.6,1.4,3.9,2.1 c-1.1,1.7-2.6,3.2-4.4,4.3c-4.7,0-8.5,3.8-8.5,8.5c0,10.5,15.8,14.5,29.6-7c13.7,2.8,28,2.1,41.4-2 C182.2,236.9,184.6,232.1,183,227.7z"></path> <path fill="#6F4AB9" d="M314.9,215c-22.5,16.9-51.6,7.4-51.8,7.3c-4.4-1.5-9.2,0.9-10.8,5.3c-1.5,4.4,0.8,9.3,5.2,10.8 c13.4,4.1,27.7,4.8,41.4,2c4.3,6.7,11.8,15.5,21.1,15.5c4.8,0,8.6-3.8,8.7-8.5c0.1-2.3-0.8-4.4-2.4-6c-1.6-1.6-3.7-2.5-6-2.5 c-1.9-1.1-3.5-2.6-4.7-4.4c1.3-0.7,2.6-1.3,3.8-2.1c5.1,3.9,11.2,6.1,17.6,6.5c4.7,0,8.5-3.8,8.5-8.5c0-4.7-3.8-8.5-8.5-8.5 c-4.2-0.8-8.1-2.9-11-6C323.1,212.8,318.3,212.5,314.9,215z"></path> <path fill="#6F4AB9" d="M185,285.4c-2.6,3.9-1.6,9.2,2.4,11.8c18.4,12.3,42.3,12.3,60.7,0c2.5-1.7,4-4.6,3.8-7.7 c-0.2-3-2-5.8-4.7-7.1c-2.7-1.4-6-1.1-8.5,0.5c-12.6,8.4-29.1,8.4-41.7,0C192.9,280.4,187.6,281.5,185,285.4z"></path> <path fill="#6F4AB9" d="M257.8,337.9c-5.7-1.3-11.3-3.3-16.5-6.1c-22.2-10.1-24.9-10.1-47.1,0c-5.2,2.7-10.8,4.8-16.5,6.1 c-2.9-0.2-5.7,0.8-7.8,2.7c-2.1,1.9-3.3,4.7-3.4,7.6c0,12,24.1,27.3,51.2,27.3c27.1,0,51.2-15.3,51.2-27.3c0-2.9-1.2-5.6-3.3-7.5 C263.4,338.7,260.6,337.7,257.8,337.9z M191,351.8L191,351.8c8.6-4.3,17.5-7.8,26.7-10.5c9.2,2.7,18.1,6.2,26.7,10.5 C227.6,360.6,207.7,360.6,191,351.8z"></path> <path fill="#6F4AB9" d="M72.6,85.3c-4.7,0-8.5,3.8-8.5,8.5c0,4.7,3.8,8.5,8.5,8.5c4.7,0,8.5-3.8,8.5-8.5 C81.1,89.2,77.3,85.3,72.6,85.3z"></path> <path fill="#6F4AB9" d="M345.7,307.2c-9.1-0.3-18,3.2-24.4,9.7c-6.5,6.5-10,15.3-9.7,24.4c0,4.7,3.8,8.5,8.5,8.5 c4.7,0,8.5-3.8,8.5-8.5c-0.3-4.6,1.4-9.1,4.7-12.4c3.3-3.3,7.8-5,12.4-4.7c4.7,0,8.5-3.8,8.5-8.6 C354.2,311,350.4,307.2,345.7,307.2z"></path> </g> <path fill="#6F4AB9" d="M47,426.7c-4.7,0-8.5,3.8-8.5,8.5v17.1c0,4.7,3.8,8.5,8.5,8.5c4.7,0,8.5-3.8,8.5-8.5v-17.1 C55.5,430.5,51.7,426.7,47,426.7L47,426.7z M47,426.7"></path> <path fill="#6F4AB9" d="M38.5,503.5c0,4.7,3.8,8.5,8.5,8.5c4.7,0,8.5-3.8,8.5-8.5v-17.1c0-4.7-3.8-8.5-8.5-8.5 c-4.7,0-8.5,3.8-8.5,8.5V503.5z M38.5,503.5"></path> <path fill="#6F4AB9" d="M64.1,477.9h17.1c4.7,0,8.5-3.8,8.5-8.5c0-4.7-3.8-8.5-8.5-8.5H64.1c-4.7,0-8.5,3.8-8.5,8.5 C55.5,474,59.3,477.9,64.1,477.9L64.1,477.9z M64.1,477.9"></path> <path fill="#6F4AB9" d="M29.9,460.8H12.9c-4.7,0-8.5,3.8-8.5,8.5c0,4.7,3.8,8.5,8.5,8.5h17.1c4.7,0,8.5-3.8,8.5-8.5 C38.5,464.6,34.6,460.8,29.9,460.8L29.9,460.8z M29.9,460.8"></path> </g> </svg> 