<?xml version="1.0" encoding="UTF-8"?> <!-- Generator: Adobe Illustrator 24.0.2, SVG Export Plug-In . SVG Version: 6.00 Build 0) --> <svg xmlns="http://www.w3.org/2000/svg" xmlns:xlink="http://www.w3.org/1999/xlink" version="1.2" id="Layer_1" x="0px" y="0px" viewBox="0 0 512 512" xml:space="preserve"> <path d="M422,482"></path> <g> <circle fill="#EE5786" cx="333.5" cy="106.6" r="16.6"></circle> <g> <path fill="#EE5786" d="M505.7,100.7c-6.1-8.8-15.8-14.3-26.4-15L424,81.9c-20.9-39.6-63.5-66.3-110.9-69 c-36.1-2.1-71.7,10.1-97.6,33.3c-23.8,21.3-37.7,50.2-39.3,81.1c-1.9,36.7,7.7,64.5,29.1,84.6c-7.2,3.3-14.6,7-22.4,11.1 c-42,22.2-64.1,13.7-112.3-14.4c-21.4-12.5-42.9-8.3-56.2,11c-15.3,22.3-18.8,64.2-9,109.4c6.3,29.1,23.5,83.3,68.1,119.3 c40.3,32.5,99.2,51.1,161.7,51.1c0.8,0,1.6,0,2.4,0c62.8-0.5,120.3-19.3,157.8-51.8c20.8-18,36.6-39.2,47-63.2 c9.7-22.4,14.2-46.6,12.9-69.8c-2.3-39.6-20.9-74.3-51.3-95.5c8.1-8,14.4-17.9,18.2-28.5c62.2-4.2,82-38.9,88.3-60.1 C513.6,120.3,511.8,109.4,505.7,100.7z M422.3,316.5c2.2,38.8-15.5,77.5-48.5,106c-31.6,27.3-81.4,43.3-136.4,43.7 c-55.9,0.4-108-15.5-143-43.7C67.6,400.9,47,364.3,37.9,322.1c-6.4-29.5-7.1-67.7,3.9-83.6c2.2-3.3,4-5.8,12.1-1.1 c31,18.1,57,31.4,86.3,31.4c17.6,0,36.4-4.8,58.2-16.3c10.5-5.6,20.2-10.2,29.5-14.2c8.9-3.8,14.8-11.8,16-21.4 c1.1-9.6-2.8-18.7-10.5-24.5c-11.3-8.5-26-24.3-24.1-63.3c1.1-22.1,11.2-42.7,28.3-58.1C257,53.5,283.8,44.4,311.2,46 c36.8,2.1,69.5,23,84.6,53.6l-5.6,12.8c-9.1,20.8-8.4,44.3,1.7,64.4c-2.3,8.3-7.7,16.5-14.6,21.8c-7,5.4-11,13.9-10.5,22.7 c0.4,8.8,5.2,16.8,12.7,21.5c1.7,1,3.3,2.1,4.9,3.2C406.8,261.1,420.6,286.9,422.3,316.5z M478.7,121 c-6.6,22.2-26.4,34.4-59.1,36.5c-3.8-10.2-3.5-21.6,1-31.9l4.5-10.4l51.8,3.6c0.8,0.1,1.2,0.5,1.5,0.8 C478.9,120.3,478.8,120.9,478.7,121z"></path> </g> <path fill="#EE5786" d="M217.3,280.6c-56.8,0-101.3,31.9-101.3,72.7S160.5,426,217.3,426s101.3-31.9,101.3-72.7 S274.1,280.6,217.3,280.6z M217.3,392.8c-36.3,0-68.1-18.5-68.1-39.5c0-21.1,31.8-39.5,68.1-39.5s68.1,18.5,68.1,39.5 C285.4,374.4,253.6,392.8,217.3,392.8z"></path> </g> </svg> 