<?xml version="1.0" encoding="UTF-8"?> <!-- Generator: Adobe Illustrator 24.0.2, SVG Export Plug-In . SVG Version: 6.00 Build 0) --> <svg xmlns="http://www.w3.org/2000/svg" xmlns:xlink="http://www.w3.org/1999/xlink" version="1.2" id="Layer_1" x="0px" y="0px" viewBox="0 0 512 512" xml:space="preserve"> <path fill="#008548" d="M512,122.9c0-5-0.2-8.1-0.2-8.8c-0.4-7.6-6.5-13.8-14.2-14.2c-2.3-0.1-34.6-1.7-75.1,6.5 c-8-41.1-22-70.6-22.6-72c-3.3-6.9-11.3-10.2-18.5-7.7c-1.5,0.5-32.2,11.5-66.8,34.9C291.8,27.3,267.9,5.5,266,3.8 c-5.7-5.1-14.3-5.1-20,0c-1.9,1.7-25.8,23.5-48.5,57.9c-34.6-23.4-65.4-34.4-66.8-34.9c-7.2-2.5-15.2,0.8-18.5,7.7 c-0.7,1.4-14.7,30.9-22.7,72C49,98.3,16.6,99.8,14.4,100c-7.6,0.4-13.7,6.5-14.1,14.2c-0.3,4.8-5.6,117,60.3,187.9 C26.9,320.7,4.9,345,3.8,346.2c-5.1,5.7-5.1,14.3,0,20.1c2.4,2.7,59.2,65.4,131.7,65.4c18.8,0,36.6-4.2,52.6-10.5 c16.7,50.6,56,86.4,57.9,88c1.4,1.3,3,2.2,4.7,2.9h10.5c1.7-0.6,3.3-1.6,4.7-2.9c1.9-1.7,41.2-37.4,57.9-88 c16,6.3,33.8,10.5,52.6,10.5c72.4,0,129.3-62.7,131.7-65.4c5.1-5.7,5.1-14.3,0-20.1c-1.1-1.2-23.1-25.5-56.6-44.2 c55.2-59.4,60.4-147.8,60.5-177.8V122.9z M378.2,60.6c4.5,11.8,10.9,30.9,15.1,53.4c-14.9,4.7-30.3,10.8-45,18.9 c-4.7-16.2-11.2-31.4-18.5-45.3C348.8,74.7,366.7,65.7,378.2,60.6z M256,36.2c18.7,19.8,57.9,67,67.8,123.5c0,0,0,0,0,0 c1.5,8.4,2.3,17.1,2.3,25.9c0,67.5-48.6,126.6-70.1,149.4c-21.5-22.8-70.1-81.9-70.1-149.4C185.9,118.1,234.5,59,256,36.2z M133.8,60.6c11.6,5.2,29.5,14.1,48.4,27c-7.3,13.9-13.8,29.1-18.5,45.3c-14.8-8.1-30.1-14.3-45-18.9 C122.9,91.4,129.2,72.4,133.8,60.6z M30.1,129.9c25.7,0.7,81.4,5.7,127.1,34c-0.9,7.1-1.4,14.3-1.4,21.7 c0,65.8,37.6,122.5,64.3,154.4c-36.9-3.5-95-15.5-134.1-54.7C38.3,237.6,31,161.3,30.1,129.9z M190.5,387.1 c-16.2,8.3-35.1,14.5-55,14.5c-43.1,0-81.5-29.4-99.1-45.4c10.1-9.2,27.1-22.8,48-32.7c43.7,32.6,97.6,43.2,133.4,46.5 c-7.4,5.5-16.1,11.2-25.8,16.3C191.5,386.6,191,386.8,190.5,387.1z M256,476.5c-12-13.3-31.7-38.5-40.6-68.8 c17.6-10.4,31.6-22,40.6-30.3c9,8.3,23,19.9,40.6,30.3C287.7,437.9,268,463.1,256,476.5z M475.6,356.3c-17.6,16-55.8,45.3-99.1,45.3 c-32.3,0-62-16.5-82.2-31.5c35.8-3.3,89.7-14,133.3-46.5C448.4,333.4,465.4,347.1,475.6,356.3z M426,285.3 c-39,39.1-97.1,51.1-134.1,54.6c26.7-31.9,64.2-88.5,64.2-154.3c0-7.4-0.5-14.6-1.4-21.7c45.5-28.2,101.4-33.2,127.1-34 C481,161.3,473.8,237.4,426,285.3z"></path> </svg> 