<?xml version="1.0" encoding="UTF-8"?> <!-- Generator: Adobe Illustrator 24.0.2, SVG Export Plug-In . SVG Version: 6.00 Build 0) --> <svg xmlns="http://www.w3.org/2000/svg" xmlns:xlink="http://www.w3.org/1999/xlink" version="1.2" id="Layer_1" x="0px" y="0px" viewBox="0 0 512 512" xml:space="preserve"> <path d="M422,482"></path> <g> <path fill="#F2733C" d="M352.3,228.1c-5.6,0-10.1,4.5-10.1,10.1v0.1c0,5.6,4.5,10,10.1,10c5.6,0,10.1-4.5,10.1-10.1 C362.4,232.6,357.9,228.1,352.3,228.1L352.3,228.1z M352.3,228.1"></path> <path fill="#F2733C" d="M184.9,62.5h71.4c5.6,0,10.1-4.5,10.1-10.1c0-5.6-4.5-10.1-10.1-10.1h-71.4c-5.6,0-10.1,4.5-10.1,10.1 C174.8,58,179.4,62.5,184.9,62.5L184.9,62.5z M184.9,62.5"></path> <g> <path fill="#F2733C" d="M460.2,343.5c-10-10.6-23-16.2-37.6-16.2c0,0,0,0,0,0c-4.7,0-9.5,0.6-14.4,1.8V57.7 c0-14.2-11.6-25.8-25.9-25.8h-53.6c0.2-2.2,0.3-4.4,0.3-6.7c0-13.9-13-25.2-28.9-25.2h-159c-16,0-29,11.3-29,25.2 c0,2.2,0.1,4.5,0.3,6.7H58.8C44.6,31.9,33,43.4,33,57.7v407.6c0,14.2,11.6,25.8,25.8,25.8h278.8l5.9,6.3c0.2,0.2,0.4,0.4,0.6,0.6 c10.5,9.4,20.7,14,30.9,14c10.3,0,20.6-4.8,31-14.5c0.2-0.2,0.3-0.3,0.5-0.5l53.7-57C485.3,413.4,485.3,370.1,460.2,343.5z M324.5,52h57.9c3.1,0,5.7,2.6,5.7,5.7v279.4c-4.6,2.6-9,5.6-13.2,9.1c-4-3.3-8.2-6.3-12.5-8.8v-56.2c0-5.6-4.5-10.1-10.1-10.1 s-10.1,4.5-10.1,10.1v48c-5-1.2-10-1.9-14.9-1.9c-14.7,0-27.8,5.6-37.8,16.2c-3.3,3.6-6.2,7.4-8.7,11.5h-52.6 c-5.6,0-10.1,4.5-10.1,10.1s4.5,10.1,10.1,10.1h44.4c-3.9,16.7-1.8,34.7,6.2,50H99V97.8h55.3c18.6,11.8,41.7,18.1,66.3,18.1 c24.7,0,47.8-6.4,66.4-18.1h55.3v97.4c0,5.6,4.5,10.1,10.1,10.1s10.1-4.5,10.1-10.1V87.7c0-5.6-4.5-10.1-10.1-10.1H310 C316.4,69.8,321.3,61.2,324.5,52z M141.1,20.1h159c5.3,0,8.8,3,8.8,5c0,5-0.6,9.8-1.7,14.5c0,0.1,0,0.2-0.1,0.2 c-3.9,15.8-13.9,29.3-28.2,39.2c-0.4,0.2-0.8,0.5-1.2,0.8c-15.2,10-34.9,15.9-57.1,15.9c-22.1,0-41.8-5.8-56.9-15.8 c-0.5-0.4-1-0.8-1.6-1.1c-14.1-9.8-24.1-23.2-28-38.8c-0.1-0.4-0.2-0.8-0.3-1.1c-1-4.5-1.6-9.1-1.6-13.9 C132.3,23.2,135.8,20.1,141.1,20.1z M58.8,470.9c-3.1,0-5.7-2.5-5.7-5.7V57.7c0-3.1,2.6-5.7,5.7-5.7h57.9 c3.2,9.2,8.1,17.8,14.5,25.7H88.9c-5.6,0-10.1,4.5-10.1,10.1v347.5c0,5.6,4.5,10.1,10.1,10.1h205.6l24.2,25.7H58.8z M445.5,426.3 L392.1,483c-12.7,11.8-21.1,11.8-34.2,0.2c0,0-51.8-55-52.1-55.3l-1.5-1.6c-14.3-15.2-17.2-38.1-8.6-56.3c0.2-0.4,0.4-0.8,0.5-1.1 c2.1-4.1,4.8-8,8-11.5c6.1-6.5,13.9-9.8,23.1-9.8c6,0,12.3,1.5,18.5,4.1c1.3,1.1,2.8,1.8,4.5,2.2c6.2,3.3,12.1,7.8,17.2,13.2 c1.9,2,4.6,3.2,7.3,3.2h0c2.8,0,5.4-1.1,7.3-3.2c11.2-11.8,27-19.5,40.4-19.5h0c9,0,16.7,3.3,22.9,9.9 C463.4,376.3,463.4,407.3,445.5,426.3z"></path> </g> <path fill="#F2733C" d="M187.7,139h-45.2c-5.6,0-10.1,4.5-10.1,10.1v45.1c0,5.6,4.5,10.1,10.1,10.1h45.2c5.6,0,10.1-4.5,10.1-10.1 v-45.1C197.8,143.5,193.3,139,187.7,139L187.7,139z M177.6,184.1h-25v-25h25V184.1z M177.6,184.1"></path> <path fill="#F2733C" d="M297.3,161.6h-68.1c-5.6,0-10.1,4.5-10.1,10.1c0,5.6,4.5,10.1,10.1,10.1h68.1c5.6,0,10.1-4.5,10.1-10.1 C307.3,166.1,302.8,161.6,297.3,161.6L297.3,161.6z M297.3,161.6"></path> <path fill="#F2733C" d="M186.9,235.7h-45.2c-5.6,0-10.1,4.5-10.1,10.1v45.1c0,5.6,4.5,10.1,10.1,10.1h45.2 c5.6,0,10.1-4.5,10.1-10.1v-45.1C197,240.2,192.5,235.7,186.9,235.7L186.9,235.7z M176.8,280.8h-25v-25h25V280.8z M176.8,280.8"></path> <path fill="#F2733C" d="M296.4,258.3h-62.1c-5.6,0-10.1,4.5-10.1,10.1c0,5.6,4.5,10.1,10.1,10.1h62.1c5.6,0,10.1-4.5,10.1-10.1 C306.5,262.8,302,258.3,296.4,258.3L296.4,258.3z M296.4,258.3"></path> <path fill="#F2733C" d="M186.9,332.4h-45.2c-5.6,0-10.1,4.5-10.1,10.1v45.1c0,5.6,4.5,10.1,10.1,10.1h45.2 c5.6,0,10.1-4.5,10.1-10.1v-45.1C197,336.9,192.5,332.4,186.9,332.4L186.9,332.4z M176.8,377.5h-25v-25h25V377.5z M176.8,377.5"></path> </g> </svg> 