<?xml version="1.0" encoding="UTF-8"?> <!-- Generator: Adobe Illustrator 24.0.2, SVG Export Plug-In . SVG Version: 6.00 Build 0) --> <svg xmlns="http://www.w3.org/2000/svg" xmlns:xlink="http://www.w3.org/1999/xlink" version="1.2" id="Capa_1" x="0px" y="0px" width="208px" height="250px" viewBox="0 0 208 250" xml:space="preserve"> <g> <path fill="#FFFFFF" d="M0.5,0v250h207V0H0.5z M199.7,242.2c-13.9,0-177.5,0-191.4,0c0-14.2,0-220.2,0-234.4 c13.9,0,177.5,0,191.4,0C199.7,22,199.7,228,199.7,242.2z"></path> <path fill="#FFFFFF" d="M145.7,215.7H143v4.6h2.7c1.8,0,2.7-0.9,2.7-2.3C148.4,216.6,147.5,215.7,145.7,215.7z"></path> <path fill="#FFFFFF" d="M127,150.5c0.4,1.5,0.8,2.6,1.2,3.4c0.4,0.8,1,1.5,1.8,2c0.8,0.5,1.5,0.8,2.3,0.8c1.5,0,2.7-1.1,3.8-3.3 c1.1-2.2,1.6-5.6,1.6-10.2c0-6.1-0.5-10.1-1.4-12.2c-0.9-2.1-2.3-3.1-4-3.1c-0.2,0-0.8,0.1-1.8,0.3c-1.1,0.3-2,1.6-2.9,3.9 c-0.9,2.2-1.3,5.2-1.3,9c0,1,0.1,3.1,0.2,6.1C126.6,148.5,126.7,149.6,127,150.5z"></path> <path fill="#FFFFFF" d="M141.8,183.3c-0.6-0.8-1.3-1.3-2.2-1.6c-1.1-0.4-2.6-0.6-4.4-0.6l-4-0.1c-3.6,0-6,0.7-7.2,2.2 c-1.2,1.5-1.8,3.5-1.8,5.9c0,1.3,0.3,2.6,1,3.9c0.7,1.3,1.8,2.3,3.4,3.1c1.6,0.7,3.4,1.1,5.2,1.1c0.5,0,1.3-0.1,2.4-0.2 c3.3-0.6,5.8-2.1,7.6-4.5c1.2-1.5,1.7-3,1.7-4.5c0-0.8-0.1-1.6-0.4-2.4C142.9,184.8,142.4,184,141.8,183.3z"></path> <path fill="#FFFFFF" d="M73.6,26.8c0-1.4-0.8-2.3-2.7-2.3h-2.8v4.7h2.8C72.8,29.1,73.6,28.2,73.6,26.8z"></path> <path fill="#FFFFFF" d="M70.7,215.7c-3,0-5,2-5,5.2c0,3.2,2,5.2,5,5.2c3,0,5-2,5-5.2C75.7,217.7,73.7,215.7,70.7,215.7z"></path> <polygon fill="#FFFFFF" points="50.1,25.5 47.7,32.1 52.5,32.1 "></polygon> <path fill="#FFFFFF" d="M73.2,127.5c-1.7,0-3.1,0.8-4.2,2.4c-1.1,1.6-1.9,4-2.3,7.2c-0.3,2-0.5,6.4-0.5,13.1 c0.2,4.7,0.3,7.4,0.4,8.1c0.3,2.5,0.7,4.7,1.3,6.5c0.4,1.2,1.1,2.2,2.1,3.1c1,0.9,2.1,1.4,3.5,1.4c1.6,0,3-0.9,4-2.6 c1.1-1.8,1.9-4.5,2.3-8.3c0.3-2.5,0.5-6.5,0.5-12.1c0-6.9-0.7-11.8-2-14.6C77.1,128.9,75.3,127.5,73.2,127.5z"></path> <path fill="#FFFFFF" d="M51.8,215.7H49v4.6h2.7c1.8,0,2.7-0.9,2.7-2.3C54.4,216.6,53.6,215.7,51.8,215.7z"></path> <path fill="#FFFFFF" d="M31.7,215.8h-2.3v10.3h2.3c3.4,0,5.4-1.9,5.4-5.1S35.1,215.8,31.7,215.8z"></path> <polygon fill="#FFFFFF" points="117.4,25.5 115,32.1 119.9,32.1 "></polygon> <path fill="#FFFFFF" d="M171.2,139.7c0.6-0.1,1.1-0.1,1.3-0.1c0.2,0,0.5,0,0.9,0c0-2.1-0.3-4.2-0.7-6.1c-0.4-1.9-1.2-3.5-2.1-4.5 c-1-1.1-2-1.6-3-1.6c-1.5,0-2.8,1.1-4,3.3c-1.2,2.2-1.9,5.2-2,9.1l7.5,0.1C169.6,139.9,170.3,139.9,171.2,139.7z"></path> <path fill="#FFFFFF" d="M117,100c-1.6,1.6-2.7,3.1-3.2,4.7c-0.5,1.2-0.7,2.6-0.7,4.3c0,1.5,0.3,2.8,0.9,3.7c0.6,1,1.2,1.5,2,1.5 c1.2,0,2.2-0.6,3.1-1.7c1.1-1.5,1.8-2.7,2-3.6c0.2-0.9,0.3-3.4,0.3-7.6c0-1.5-0.1-3.1-0.2-4.6C120,97.3,118.6,98.4,117,100z"></path> <polygon fill="#FFFFFF" points="170.4,32.1 175.3,32.1 172.8,25.5 "></polygon> <path fill="#FFFFFF" d="M192.9,14C181.6,14,25.3,14,14,14c0,11.5,0,210.4,0,221.9c11.3,0,167.6,0,178.9,0 C192.9,224.4,192.9,25.5,192.9,14z M154.9,21.8h3.4v15.9h-3.4V21.8z M139.7,21.6c3.7,0,6.8,1.9,7.9,5.2h-3.9 c-0.8-1.5-2.2-2.3-4-2.3c-2.9,0-5,2-5,5.3c0,3.2,2.1,5.3,5,5.3c1.8,0,3.3-0.8,4-2.3h3.9c-1.1,3.3-4.2,5.2-7.9,5.2 c-4.8,0-8.5-3.4-8.5-8.1C131.2,25,134.9,21.6,139.7,21.6z M115.5,21.8h3.9l6,15.9h-3.6l-1.1-3h-6.7l-1.1,3h-3.5L115.5,21.8z M105.6,85.8c0.8-2,2-4,3.6-5.9c1.6-1.9,3.1-3.3,4.4-4.1c1.9-1,4.2-1.5,6.9-1.5c1.8,0,3.3,0.5,4.5,1.6c1.3,1,2.1,2.6,2.6,4.6 c0.5,2,0.7,5.7,0.7,11l-0.1,8.7l0.1,6.4v1.6c0,1.5,0.1,2.5,0.4,3c0.2,0.5,0.6,0.8,1,0.8c0.2,0,0.5-0.1,0.6-0.3l1-2.5l0.6-0.4 l0.7,0.8c0.2,0.2,0.3,0.5,0.4,0.9l0.1,0.3c-0.5,3.1-1.2,5.3-2.1,6.5c-0.9,1.2-1.9,1.8-3.2,1.8c-1.3,0-2.4-0.6-3.3-1.7 c-0.9-1.1-1.8-3.2-2.5-6c-0.9,2.7-2.3,4.7-4,6c-1.7,1.3-3.8,2-6.3,2c-2.3,0-4-0.8-5-2.3c-1.1-1.5-1.6-3.5-1.6-6 c0-1.2,0.2-2.3,0.5-3.5c0.3-1.2,0.8-2.4,1.6-3.5c0.7-1.2,1.9-2.5,3.4-3.9c0.2-0.2,1.1-0.8,2.5-1.8l8.2-5.3c0.1-1.3,0.1-2.7,0.1-4 c0-4.7-0.4-7.9-1.1-9.6c-0.4-1-1.2-1.6-2.3-1.6c-1.1,0-2.1,0.3-3,1c-0.9,0.7-1.6,1.5-2,2.6c-0.3,0.8-0.6,2.2-0.8,4.3 c-0.1,1.5-0.3,2.4-0.4,2.7c-0.3,0.7-1,1.3-1.8,1.8c-0.9,0.5-1.4,0.9-1.8,1.2c-1.2,0.9-2.1,1.4-2.8,1.4c-0.4-0.4-0.5-1-0.5-1.8 C104.8,88.9,105.1,87.2,105.6,85.8z M84.5,21.8h3.8l5.3,11.8L99,21.8h3.8v15.9h-3.4V27.4l-4.5,10.3h-2.6l-4.5-10.3v10.3h-3.4V21.8z M88,48.9c1.1,0,2.6,0.3,4.7,0.9c1.2,0.3,2.9,1.1,5,2.2c0.2,1.2,0.4,3,0.6,5.4c0.3,3.6,0.4,6.4,0.4,8.5c0,0.6-0.1,1.3-0.1,2.1 l-0.3,0.2l-2.2-0.3l-0.3-0.1c-1-4.6-2-7.8-2.9-9.5C91,55.4,89,54,86.7,54c-2.2,0-3.9,0.9-5.2,2.7c-1.3,1.8-1.9,4.1-1.9,6.7 c0,2.3,0.6,4.4,1.8,6.5c1.2,2.1,3.8,4.1,7.9,5.9c1.3,0.6,3,1.6,4.9,3c1.9,1.4,3.3,2.9,4.3,4.6c1.3,2.2,2.2,4.3,2.7,6.3 c0.5,2,0.7,4.5,0.7,7.6c0,3.3-0.4,6.6-1.2,9.8c-0.4,1.7-1.1,3.3-2,4.8c-0.7,1.1-1.7,2.3-3.1,3.7c-1.4,1.4-2.8,2.5-4.3,3.1 c-1.5,0.6-3.4,0.9-5.7,0.9c-1.6,0-3.4-0.4-5.5-1.1l-4-1.9c-1.1-0.5-1.8-0.9-2.1-1.3c-0.1-0.1-0.3-0.5-0.3-1v-0.6c0-0.4,0-2.8,0-7.1 c0-2.3,0-3.9,0-4.8v-2l3-0.1c1,3.9,1.7,6.2,2.1,7c0.7,1.8,1.4,3.2,2.2,4.3c0.8,1.1,1.8,2,2.9,2.6c1.1,0.6,2.4,1,3.7,1 c1.2,0,2.5-0.4,3.9-1.2c1.4-0.8,2.6-2.1,3.4-4c0.9-1.8,1.3-3.8,1.3-5.9c0-2.6-0.8-5-2.3-7.2c-0.9-1.4-3.4-3.2-7.4-5.5 c-4-2.3-6.9-4.3-8.4-6.1c-1.6-1.8-2.8-4.2-3.7-7.2c-0.9-3-1.3-5.9-1.3-8.7c0-5.6,1.3-10.3,3.8-14.2C79.4,50.9,83.1,48.9,88,48.9z M64.7,21.8H71c4,0,6.1,2.2,6.1,4.9c0,1.9-1.1,3.9-3.8,4.6l4,6.4h-3.9l-3.7-6.2h-1.6v6.2h-3.4V21.8z M48.2,21.8h3.9l6,15.9h-3.6 l-1.1-3h-6.7l-1.1,3h-3.5L48.2,21.8z M26.1,21.8h10.4v2.6h-7v4.1h5.4V31h-5.4v6.7h-3.4V21.8z M31.8,228.7h-5.7v-15.6h5.7 c5.2,0,8.6,3.1,8.6,7.8C40.4,225.7,37,228.7,31.8,228.7z M41.8,192c-1.7,2.7-3.4,4.6-5.1,5.7c-1.6,1.1-3.3,1.6-5,1.6 c-1.5,0-2.8-0.9-4-2.7c-1.1-1.8-1.7-3.9-1.7-6.4c0-2,0.4-3.6,1.2-4.9c0.8-1.3,1.8-2,2.9-2c1.1,0,2.2,1.1,3.3,3.3 c0.9,2.6,1.7,4.3,2.4,5c0.4,0.3,0.7,0.4,0.9,0.4c0.5,0,1-0.4,1.3-1.3c0.5-1.3,0.8-3.4,0.8-6.3V181c0-2,0-4,0-5.8c0-1.1,0-1.9,0-2.7 c0-0.3,0-1.6-0.1-3.8l0.1-4.2l-0.1-21.2c0-1.1,0-2-0.1-2.7c-0.1-1.5-0.1-3-0.1-4.3l0.1-12.3l-0.2-10.4l-0.2-3.7c0-2.8,0-4.5,0-5.3 c-0.5-0.2-2-0.5-4.5-0.9H33l-0.8-0.1c-0.2,0-0.4-0.1-0.6-0.1v-4.9c2.1,0,4,0.1,5.5,0.3c1.6,0.2,3.6,0.3,6.2,0.3 c2.2,0,4.7-0.2,7.3-0.7c0.6-0.1,1-0.2,1.3-0.2c0.4,0,0.9,0.1,1.7,0.2c0,0.9,0.1,1.5,0.1,2c0,0.5,0,1.2-0.1,2.3 c-1.7,0.4-2.8,0.5-3.3,0.5c-1.2,0-2.1,0.2-2.7,0.5c0,0.9,0,1.5,0,1.6c0,3.6,0,5.9,0.1,6.7c0,0.8,0.1,3,0.1,6.5v4.7l0.1,7.3l0,5.7 l0.1,5.8l0,5.9l0,4.3c0,8.3-0.2,14.8-0.6,19.4c-0.4,4.6-1.1,8.4-2,11.3C44,187.3,42.8,190.3,41.8,192z M54.2,228.7l-3.6-6.1H49v6.1 h-3.3v-15.6h6.1c3.9,0,5.9,2.2,5.9,4.8c0,1.9-1.1,3.8-3.7,4.5l3.9,6.3H54.2z M70.7,228.9c-4.6,0-8.4-3.3-8.4-8c0-4.7,3.8-8,8.4-8 c4.7,0,8.4,3.3,8.4,8C79.1,225.6,75.4,228.9,70.7,228.9z M73.5,173.1c-3.5,0-6.4-1.3-8.8-3.9c-2.4-2.6-4.1-5.6-5.1-9 c-1-3.3-1.5-7.5-1.5-12.5c0-2.5,0.2-5,0.7-7.6c0.5-2.5,1.2-4.7,2-6.6c0.8-1.9,1.8-3.5,2.8-4.7c1.5-1.8,3-3.1,4.5-3.9 c1.5-0.8,3.3-1.2,5.4-1.2c4.6,0,8.2,2.3,10.8,6.9c1.4,2.3,2.5,5,3.2,8c0.7,3,1,5.9,1,8.5c0,5-0.4,9.1-1.3,12.2 c-1.4,4.7-3.3,8.1-5.6,10.3C79.3,172,76.6,173.1,73.5,173.1z M99.9,222.8c-0.7,3.2-3.6,6.1-8,6.1c-4.8,0-8.4-3.3-8.4-8 c0-4.7,3.6-8,8.4-8c3.7,0,6.6,1.8,7.6,4.9h-3.8c-0.8-1.3-2.1-2-3.8-2c-2.9,0-5,2-5,5.1c0,3.2,2.1,5.1,5.1,5.1 c2.5,0,4.2-1.4,4.6-3.6H91v-2.4h8.9V222.8z M96.3,171.4h-0.6c-0.1,0-1.3,0.1-3.5,0.3c0-0.6-0.1-1-0.1-1.3c0-0.3,0-0.7,0.1-1.3 c0.3-0.4,0.7-0.7,1.1-0.9c1.1-0.4,2.2-1.2,3.2-2.3c0.2-0.9,0.3-3.9,0.3-9.1c0-9.5-0.1-15.9-0.4-19.3c0-0.6-0.2-1.1-0.5-1.6 c-0.6-0.5-1.3-0.9-2.2-1.3c-0.4-0.2-0.7-0.6-0.8-1.2l-0.1-2.1c1.6-0.4,3.1-1.3,4.4-2.9c1.3-1.5,2.3-3.1,2.9-4.7 c0.3-0.9,0.6-1.5,0.9-2l2.3-0.1c0.1,0.9,0.1,1.6,0.1,2.2c0,0.4,0,0.9,0,1.5c0,1.3,0,2.4,0,3.3c0,0.4,0,2,0,4.7 c0.9-2.6,1.6-4.4,2-5.3c0.2-0.4,0.8-1.3,1.8-2.8c0.8-0.9,1.6-1.4,2.7-1.4c1.2,0,2.2,0.7,3.1,2c0.9,1.4,1.3,2.9,1.3,4.7 c0,1.8-0.3,3.4-1,4.8c-0.7,1.4-1.6,2.1-2.7,2.1c-1,0-2-0.7-3.1-2.1c-0.6-0.8-1.1-1.3-1.5-1.3l-0.2,0.1c-0.5,0.3-0.9,1-1.3,2.1 c-0.6,1.9-0.9,3.8-0.9,5.8l0.1,1.5c0.1,2.8,0.2,9.3,0.2,19.5c0.1,0.9,0.3,1.9,0.7,2.8c0.4,0.5,0.8,0.9,1.2,1.1 c0.4,0.2,1.1,0.4,2.1,0.6c1,0.2,1.6,0.4,1.9,0.7c0.2,0.3,0.3,0.8,0.3,1.6c0,0.4-0.1,1-0.2,1.6h-3.1l-6.3-0.6 C99,171.1,97.6,171.2,96.3,171.4z M118.3,222.8c0,4.1-3.1,6.1-6.7,6.1c-3.6,0-6.5-2-6.5-6.1v-9.6h3.3v9.7c0,2.1,1.2,3.3,3.3,3.3 c2.1,0,3.3-1.1,3.3-3.3v-9.7h3.3V222.8z M133.9,215.7h-6.2v3.9h5.5v2.5h-5.5v4.1h6.2v2.6h-9.5v-15.6h9.5V215.7z M131,201 c-3,0-5.6-0.5-7.9-1.5c-2.3-1-4.1-2.6-5.5-4.8c-1-1.6-1.5-3.4-1.5-5.3c0-1.8,0.4-3.5,1.3-4.9c0.8-1.4,3.1-3.2,6.6-5.2 c-3-1.3-5-2.8-6-4.5c-1-1.7-1.5-3.6-1.5-5.7c0-1.7,0.3-3,0.8-3.9c0.5-0.9,2.9-3.4,7.3-7.6c-2.2-2.2-3.7-4.4-4.5-6.4 c-1.1-2.7-1.6-5.4-1.6-8c0-2.4,0.3-4.9,0.9-7.6c1.2-3.8,2.9-6.7,5.1-8.6c2.2-1.9,4.9-2.8,8.3-2.8c1.4,0,2.6,0.2,3.6,0.5 c0.5,0.1,1.3,0.6,2.4,1.2l1.2,0.8c1.1,1.2,2.1,2.4,2.9,3.7c1.9-0.6,3.5-1.3,4.6-2c0.8-0.4,1.5-0.6,2.1-0.6c0.4,0,0.8,0.3,1,1 c0.3,0.6,0.4,2.2,0.4,4.5c0,2.1-0.2,3.5-0.5,4.3c-0.3,0.8-0.7,1.2-1,1.2c-0.2,0-0.5-0.3-1.2-0.8c-1.5-1.2-2.7-1.8-3.6-1.8 c0.5,2.6,0.8,5.1,0.8,7.4c0,2.7-0.5,5.4-1.4,7.8c-0.9,2.5-2.2,4.5-3.9,5.9c-2.3,2.1-4.5,3.1-6.8,3.1c-1.5,0-2.5-0.1-3-0.2 c-0.8-0.1-1.8-0.5-3.2-1c-1.9,1.7-3.2,3.2-3.9,4.5c-0.4,0.6-0.6,1.3-0.6,2.1c0,0.7,0.2,1.4,0.6,2c0.4,0.6,1,1,1.9,1.2 c0.2,0,0.4,0.1,0.7,0.2c1.2,0.1,2.7,0.2,4.7,0.2c0.3,0,1.1-0.1,2.4-0.2c0.4,0,0.7-0.1,1-0.1c5.3,0,9,1.4,11.1,4.3 c2.1,2.9,3.2,6.3,3.2,10.5c0,2.2-0.4,4.4-1.1,6.5c-0.7,2.1-1.7,3.8-3,5.2c-1.3,1.3-3.1,2.5-5.5,3.6C136.2,200.4,133.7,201,131,201z M148.1,228.7l-3.6-6.1H143v6.1h-3.3v-15.6h6.1c3.9,0,5.9,2.2,5.9,4.8c0,1.9-1.1,3.8-3.7,4.5l3.9,6.3H148.1z M152,118.8 c0-0.4,0-0.8,0-1c0-0.6,0-1.3,0.1-2c0.3-0.1,1.1-0.3,2.3-0.5c0.3-0.1,0.7-0.2,1.1-0.4c0.5-0.3,0.7-0.6,0.7-0.8 c0.2-0.6,0.3-1.7,0.3-3.4c0-3,0-5.2-0.1-6.8l0.1-6.1c0-7.4-0.3-12-0.9-13.9c-0.8-2.6-2.1-4-3.8-4c-1.2,0-2.5,0.5-3.8,1.5 c-1.3,1-2.6,2.5-4,4.6v0.9v3.3v3.5l0.1,8.4l-0.1,1.3c0,5.7,0.1,9,0.4,9.7c0.3,0.7,1.4,1.5,3.3,2.4c0.1,0.6,0.1,1,0.1,1.3 c0,0.4-0.1,1.1-0.2,1.9c-0.7,0-1.3,0.1-1.7,0.1c-0.5,0-1.2-0.1-2.2-0.3l-3.5-0.1c-1.8,0-4.3,0.1-7.6,0.4c-0.1-0.4-0.2-0.7-0.2-1.1 c0-0.3,0-0.9,0.1-1.7c0.6-0.4,1.1-0.7,1.6-0.8c1.2-0.3,1.9-0.6,2.1-0.8c0.3-0.3,0.5-0.7,0.6-1.2c0.1-0.7,0.2-2.3,0.2-4.7V104 l0.1-3.8l-0.1-5.6l-0.1-3.3c0-2.2-0.1-4.1-0.3-5.5c-0.1-0.5-0.4-1.1-0.8-1.6c-0.6-0.7-1.6-1.4-3.1-2.1v-2.5 c0.3-0.1,0.5-0.2,0.8-0.3c0.2-0.1,1.1-0.4,2.7-1c1.2-0.7,2-1.2,2.3-1.5c0.1-0.1,0.3-0.3,0.5-0.5c0.3-0.4,0.6-0.7,0.9-1.1 c0.7-0.7,1.5-2,2.4-3.8l1.7-0.1v6c0,0.6,0,1.1,0,1.4c0,0.3,0,1.1,0,2.5c1.8-2.6,3.4-4.3,4.9-5.3c1.9-1.3,3.8-2,5.5-2 c2,0,3.8,0.8,5.3,2.5c1.5,1.6,2.5,3.5,3,5.7c0.5,2.1,0.7,6.5,0.7,13v17.2c0,0.8,0,1.5,0.1,2c0.2,0.3,0.8,0.5,1.8,0.8l1.6,0.5 c0.2,0.4,0.3,0.9,0.3,1.6c0,0.4,0,0.9-0.1,1.6l-6.4-0.5l-1.9,0.1h-1.5l-4.3,0.4H152z M160.6,228.7h-3.3v-15.6h3.3V228.7z M177.4,228.7l-1.1-3h-6.5l-1.1,3h-3.4l5.9-15.6h3.8l5.9,15.6H177.4z M161.7,151.1c0.3,2.2,0.7,4.1,1.3,5.7 c0.6,1.7,1.3,3.1,2.1,4.3c0.8,1.2,1.7,2.1,2.6,2.6l2,1.1c1.7,0,2.8-0.1,3.4-0.3c1.1-0.4,2-0.9,2.8-1.4c0.8-0.6,1.8-1.6,3-3 c0.8,1,1.4,1.9,2,2.7c-1.9,3.7-4,6.3-6,8c-2.1,1.6-4.4,2.5-7,2.5c-1.7,0-3.1-0.3-4.2-0.8c-1.5-0.7-2.8-1.7-4-3.1 c-1.2-1.4-2.2-3.1-3.1-5.2c-0.9-2.1-1.5-4.2-1.9-6.4c-0.6-2.9-0.8-5.2-0.8-6.9c0-3.3,0.2-6.2,0.5-8.9c0.6-3.2,1.1-5.3,1.5-6.4 c1.2-3.1,2.6-5.5,4-7.2c1.4-1.7,2.7-2.9,3.8-3.4c1.5-0.7,2.7-1.1,3.6-1.1c2.1,0,3.7,0.3,5,0.8c1.3,0.5,2.4,1.3,3.2,2.4 c1.2,1.5,2.2,3,3,4.5c0.8,1.5,1.4,3.3,1.9,5.3c0.5,2,0.7,4.5,0.8,7.4l-3.7-0.1c-1,0-3.2-0.2-6.7-0.5c-1.3-0.2-2.2-0.3-2.7-0.3 c-0.2,0-1.3,0-3.6,0.1h-2.9c0,0.5-0.1,1-0.1,1.3C161.3,146.8,161.4,148.9,161.7,151.1z M177.3,37.7l-1.1-3h-6.7l-1.1,3h-3.5l6-15.9 h3.9l6,15.9H177.3z"></path> <polygon fill="#FFFFFF" points="170.7,223.3 175.4,223.3 173.1,216.7 "></polygon> </g> </svg> 