<?xml version="1.0" encoding="UTF-8"?> <!-- Generator: Adobe Illustrator 24.0.2, SVG Export Plug-In . SVG Version: 6.00 Build 0) --> <svg xmlns="http://www.w3.org/2000/svg" xmlns:xlink="http://www.w3.org/1999/xlink" version="1.2" id="Capa_1" x="0px" y="0px" width="300px" height="118px" viewBox="0 0 300 118" xml:space="preserve"> <g> <g> <path fill="#006835" d="M264.7,94.2c1.7,4.6,0.6,10.5-2.1,15.4h35.8V94.2H264.7z"></path> </g> <g> <path fill="#006835" d="M70.9,73.9c0-0.4-0.2-0.7-0.4-1L69.6,72l-0.7,0.4l-1.2,2.9c-0.2,0.2-0.5,0.4-0.8,0.4c-0.4,0-0.8-0.3-1.1-1 c-0.3-0.6-0.4-1.8-0.4-3.5v-1.9l-0.1-7.5l0.1-10.2c0-6.2-0.3-10.5-0.9-12.9c-0.6-2.4-1.6-4.2-3.1-5.4c-1.5-1.2-3.2-1.8-5.3-1.8 c-3.2,0-5.9,0.6-8.1,1.7c-1.6,0.9-3.4,2.5-5.3,4.7c-1.9,2.2-3.3,4.6-4.2,6.9c-0.6,1.7-0.9,3.7-0.9,6.1c0,0.9,0.2,1.6,0.7,2.1 c0.8,0,1.9-0.5,3.3-1.6c0.4-0.3,1.1-0.8,2.1-1.4c1-0.6,1.7-1.3,2.1-2.1c0.2-0.3,0.3-1.3,0.5-3.1c0.3-2.5,0.6-4.2,0.9-5.1 c0.5-1.2,1.3-2.2,2.4-3c1.1-0.7,2.3-1.1,3.6-1.1c1.3,0,2.2,0.6,2.7,1.8c0.9,2,1.3,5.7,1.3,11.2c0,1.6,0,3.2-0.1,4.7l-9.7,6.2 c-1.7,1.1-2.6,1.8-2.9,2.1c-1.9,1.6-3.2,3.2-4.1,4.5c-0.9,1.4-1.5,2.8-1.8,4.2c-0.4,1.4-0.5,2.7-0.5,4.1c0,2.9,0.6,5.3,1.9,7 c1.2,1.8,3.2,2.7,6,2.7c2.9,0,5.4-0.8,7.4-2.4c2-1.6,3.6-3.9,4.7-7c0.9,3.4,1.9,5.7,3,7.1c1.1,1.3,2.4,2,3.9,2 c1.5,0,2.7-0.7,3.7-2.1c1-1.3,1.8-3.9,2.4-7.5L70.9,73.9z M56.8,72c-0.3,1-1.1,2.4-2.4,4.2c-1,1.3-2.2,2-3.6,2 c-0.9,0-1.7-0.6-2.3-1.7c-0.7-1.2-1-2.6-1-4.4c0-2,0.3-3.6,0.8-5c0.7-1.8,1.9-3.7,3.8-5.5c1.9-1.8,3.5-3.2,5-3.9 c0.1,1.8,0.2,3.6,0.2,5.4C57.1,68,57,71,56.8,72z"></path> <path fill="#006835" d="M70.6,37.8c0.3-0.1,0.7-0.3,0.9-0.3c0.3-0.1,1.3-0.5,3.2-1.2c1.4-0.8,2.4-1.4,2.8-1.7 c0.2-0.1,0.4-0.3,0.6-0.6c0.3-0.4,0.7-0.8,1.1-1.2c0.8-0.9,1.7-2.3,2.8-4.4l2-0.2v7c0,0.7,0,1.3,0,1.7c0,0.4,0,1.3,0,2.9 c2.1-3,4-5.1,5.8-6.2c2.3-1.6,4.4-2.3,6.5-2.3c2.4,0,4.5,1,6.3,2.9c1.8,1.9,3,4.1,3.6,6.6c0.6,2.5,0.8,7.6,0.8,15.2V76 c0,0.9,0.1,1.7,0.2,2.3c0.3,0.3,0.9,0.6,2.1,0.9l1.9,0.6c0.2,0.5,0.4,1.1,0.4,1.8c0,0.4,0,1.1-0.1,1.9l-7.6-0.6l-2.3,0.1h-1.7 l-5.1,0.5h-1.3c0-0.5,0-0.9,0-1.2c0-0.7,0-1.5,0.1-2.3c0.3-0.1,1.2-0.3,2.6-0.6c0.4,0,0.8-0.2,1.3-0.4c0.6-0.3,0.8-0.7,0.9-1 c0.2-0.7,0.3-2,0.3-4c0-3.5,0-6.1,0-7.9l0-7.1c0-8.7-0.4-14.1-1-16.2c-1-3.1-2.5-4.6-4.5-4.6c-1.4,0-2.9,0.6-4.4,1.8 c-1.5,1.2-3.1,2.9-4.8,5.3v1.1v3.9v4.1l0.1,9.8l-0.1,1.6c0,6.7,0.2,10.5,0.5,11.3c0.3,0.9,1.6,1.8,3.9,2.8 c0.1,0.7,0.1,1.2,0.1,1.5c0,0.5-0.1,1.2-0.3,2.3c-0.8,0-1.5,0.1-2,0.1c-0.6,0-1.4-0.1-2.5-0.4l-4.2-0.1c-2.1,0-5.1,0.1-9,0.5 c-0.1-0.4-0.2-0.9-0.2-1.3c0-0.3,0-1,0.1-2c0.6-0.5,1.3-0.8,1.8-1c1.4-0.4,2.2-0.7,2.5-1c0.4-0.4,0.6-0.8,0.7-1.4 c0.2-0.8,0.2-2.6,0.2-5.4v-5.4l0.1-4.4l-0.1-6.5l-0.1-3.9c0-2.6-0.1-4.7-0.4-6.4c-0.1-0.6-0.4-1.2-1-1.9c-0.7-0.8-1.9-1.6-3.6-2.4 L70.6,37.8L70.6,37.8z"></path> <path fill="#006835" d="M4.6,8.7c3-4.6,7.3-6.8,13.1-6.8c1.2,0,3.1,0.3,5.6,1c1.5,0.4,3.4,1.2,5.8,2.5c0.2,1.4,0.5,3.5,0.7,6.4 c0.3,4.2,0.5,7.5,0.5,9.9c0,0.7-0.1,1.5-0.2,2.4l-0.4,0.2L27.1,24l-0.4-0.1c-1.2-5.4-2.3-9.1-3.5-11.1c-2-3.3-4.4-4.9-7.1-4.9 c-2.5,0-4.6,1.1-6.1,3.2c-1.5,2.1-2.3,4.7-2.3,7.9c0,2.6,0.7,5.2,2.2,7.6c1.4,2.4,4.5,4.7,9.3,6.9c1.6,0.7,3.5,1.9,5.7,3.5 c2.3,1.6,4,3.4,5.1,5.3c1.6,2.5,2.7,5,3.2,7.4c0.6,2.4,0.9,5.3,0.9,8.9c0,3.9-0.5,7.7-1.4,11.4c-0.5,2-1.3,3.8-2.4,5.6 c-0.8,1.2-2,2.7-3.7,4.3c-1.6,1.7-3.4,2.9-5.1,3.6c-1.8,0.7-4,1.1-6.8,1.1c-1.8,0-4-0.4-6.5-1.2l-4.7-2.2 c-1.3-0.6-2.1-1.1-2.5-1.6c-0.2-0.1-0.3-0.5-0.4-1.1v-0.7c0-0.4,0-3.2,0-8.3c0-2.7,0-4.5,0-5.6v-2.3l3.6-0.1 c1.2,4.5,2,7.2,2.4,8.2c0.7,2.1,1.7,3.8,2.6,5c1,1.3,2.1,2.3,3.5,3c1.4,0.8,2.8,1.1,4.4,1.1c1.4,0,3-0.5,4.6-1.4 c1.7-0.9,3-2.5,4-4.6c1-2.1,1.5-4.4,1.5-6.9c0-3-0.9-5.8-2.7-8.4c-1.1-1.6-4-3.7-8.8-6.4C11.3,48.4,8,46,6.1,43.9 c-1.8-2.1-3.3-4.9-4.3-8.4C0.7,32,0.2,28.6,0.2,25.4C0.2,18.9,1.7,13.3,4.6,8.7z"></path> </g> <g> <path fill="#006835" d="M189.7,45c-0.8-3.5-2.1-6.6-3.8-9.4c-3.1-5.4-7.3-8.1-12.8-8.1c-2.5,0-4.6,0.5-6.4,1.4 c-1.8,0.9-3.5,2.4-5.3,4.5c-1.2,1.5-2.3,3.3-3.3,5.5c-1,2.2-1.8,4.8-2.4,7.8c-0.6,3-0.9,5.9-0.9,8.8c0,5.8,0.6,10.7,1.8,14.6 c1.2,3.9,3.2,7.4,6.1,10.5c2.9,3.1,6.3,4.6,10.4,4.6c3.6,0,6.8-1.3,9.6-3.9c2.7-2.6,4.9-6.6,6.6-12c1.1-3.6,1.6-8.3,1.6-14.2 C190.9,51.9,190.5,48.6,189.7,45z M180.7,68.1c-0.5,4.4-1.4,7.6-2.7,9.6c-1.3,2.1-2.9,3.1-4.8,3.1c-1.6,0-3-0.5-4.1-1.6 c-1.1-1.1-1.9-2.3-2.4-3.6c-0.8-2.1-1.3-4.7-1.6-7.6c-0.1-0.9-0.3-4-0.5-9.5c0-7.8,0.2-12.9,0.6-15.3c0.5-3.7,1.4-6.5,2.7-8.4 c1.3-1.9,2.9-2.8,4.9-2.8c2.6,0,4.6,1.6,6.2,5c1.5,3.3,2.3,9,2.3,17.1C181.3,60.6,181.1,65.2,180.7,68.1z"></path> <path fill="#006835" d="M208.7,27.5c0,0.5,0,1.1,0,1.8c0,1.5,0,2.8,0,3.8c0,0.5,0,2.3,0,5.5c1.1-3.1,1.9-5.2,2.4-6.2 c0.2-0.5,0.9-1.6,2.1-3.2c0.9-1.1,1.9-1.7,3.1-1.7c1.4,0,2.6,0.8,3.7,2.4c1.1,1.6,1.6,3.4,1.6,5.5c0,2.1-0.4,3.9-1.2,5.6 c-0.8,1.6-1.8,2.5-3.2,2.5c-1.1,0-2.4-0.8-3.6-2.4c-0.7-1-1.3-1.4-1.8-1.4l-0.3,0c-0.6,0.3-1.1,1.2-1.6,2.5 c-0.7,2.2-1.1,4.5-1.1,6.8l0.1,1.8c0.1,3.3,0.2,10.9,0.2,22.8c0.1,1.1,0.4,2.2,0.8,3.3c0.4,0.6,0.9,1,1.4,1.3 c0.5,0.3,1.3,0.5,2.5,0.7c1.2,0.2,1.9,0.5,2.2,0.8c0.2,0.4,0.4,1,0.4,1.8c0,0.5-0.1,1.1-0.3,1.9h-3.6l-7.4-0.7 c-1.9,0-3.6,0.1-5.1,0.4h-0.7c-0.2,0-1.5,0.1-4.1,0.3c0-0.7,0-1.2,0-1.6c0-0.3,0-0.8,0-1.5c0.4-0.5,0.8-0.8,1.4-1 c1.3-0.5,2.6-1.4,3.8-2.6c0.2-1.1,0.3-4.6,0.3-10.7c0-11.1-0.1-18.6-0.5-22.5c0-0.7-0.2-1.3-0.6-1.9c-0.7-0.6-1.5-1-2.6-1.5 c-0.5-0.2-0.8-0.7-0.9-1.5l-0.2-2.4c1.9-0.5,3.6-1.6,5.2-3.4c1.5-1.8,2.7-3.6,3.5-5.5c0.4-1,0.7-1.8,1.1-2.3l2.7-0.2 C208.6,26,208.7,26.8,208.7,27.5z"></path> <path fill="#006835" d="M123.3,71.1c1-1.4,2.1-2.1,3.4-2.1c1.3,0,2.6,1.2,3.9,3.6c1,2.8,2,4.6,2.8,5.4c0.5,0.3,0.8,0.4,1.1,0.4 c0.7,0,1.2-0.5,1.6-1.5c0.6-1.4,0.9-3.7,0.9-6.9v-3.6c0-2.2,0-4.3,0-6.3c0-1.1,0-2.1,0-2.9c0-0.4,0-1.7-0.1-4.2l0.1-4.6l-0.3-20.6 l-0.2-11.3l-0.2-4c0-3,0-4.9,0-5.7c-0.6-0.2-2.3-0.5-5.3-1h-0.9l-1-0.1c-0.2,0-0.4-0.1-0.7-0.2V0.4c2.5,0,4.7,0.1,6.5,0.4 c1.8,0.2,4.3,0.4,7.3,0.4c2.6,0,5.5-0.2,8.6-0.7c0.6-0.1,1.2-0.2,1.5-0.2c0.5,0,1.1,0.1,2,0.2c0,0.9,0.1,1.7,0.1,2.1 c0,0.5,0,1.4-0.1,2.5c-1.9,0.4-3.2,0.6-3.9,0.5c-1.4,0-2.5,0.2-3.1,0.5c0,1,0,1.6,0,1.8c0,4,0,6.4,0.1,7.2 c0.1,0.9,0.1,3.2,0.1,7.1v5.1c0,0-0.1,24.2-0.6,29.2c-0.5,5-1.2,9.1-2.3,12.2c-1.5,4.5-2.9,7.7-4.1,9.5c-2,3-4,5-6,6.2 c-1.9,1.1-3.9,1.7-5.9,1.7c-1.8,0-3.3-1-4.7-3c-1.3-2-2-4.3-2-6.9C121.8,74.3,122.3,72.5,123.3,71.1z"></path> <path fill="#006835" d="M264.3,33.4c-0.3-0.7-0.7-1.1-1.2-1.1c-0.7,0-1.6,0.3-2.5,0.7c-1.4,0.8-3.2,1.6-5.5,2.3 c-1-1.5-2.1-2.9-3.5-4.3l-1.5-0.9c-1.3-0.8-2.2-1.2-2.8-1.4c-1.1-0.3-2.5-0.5-4.2-0.5c-4,0-7.3,1.1-9.8,3.3 c-2.6,2.2-4.6,5.6-6.1,10c-0.7,3.1-1,6.1-1,8.8c0,3.1,0.6,6.2,1.9,9.4c1,2.4,2.8,4.9,5.4,7.5c-5.1,4.8-8,7.8-8.6,8.9 c-0.6,1.1-0.9,2.6-0.9,4.5c0,2.4,0.6,4.7,1.8,6.7c1.2,2,3.5,3.7,7.1,5.2c-4.2,2.4-6.8,4.4-7.8,6.1c-1,1.7-1.5,3.6-1.5,5.7 c0,2.2,0.6,4.3,1.8,6.2c1.5,2.6,3.7,4.5,6.4,5.6c2.7,1.1,5.9,1.7,9.4,1.7c3.2,0,6.2-0.6,9-1.8c2.8-1.2,5-2.6,6.4-4.2 c1.5-1.6,2.7-3.6,3.6-6.1c0.9-2.5,1.3-5,1.3-7.6c0-4.8-1.2-8.9-3.7-12.2c-2.5-3.4-6.9-5-13.2-5c-0.3,0-0.7,0-1.1,0.1 c-1.6,0.1-2.5,0.2-2.8,0.2c-2.3,0-4.2-0.1-5.5-0.3c-0.4-0.1-0.7-0.2-0.9-0.3c-1.1-0.3-1.8-0.8-2.3-1.4c-0.4-0.7-0.7-1.5-0.7-2.4 c0-0.9,0.2-1.8,0.7-2.5c0.9-1.4,2.4-3.2,4.6-5.2c1.7,0.6,2.9,1,3.8,1.2c0.6,0.1,1.8,0.2,3.5,0.2c2.7,0,5.4-1.2,8.1-3.6 c1.9-1.7,3.5-4,4.6-6.9c1.1-2.9,1.7-6,1.7-9.2c0-2.7-0.3-5.6-0.9-8.6c1.1,0.1,2.5,0.8,4.3,2.1c0.8,0.6,1.2,0.9,1.4,0.9 c0.4,0,0.8-0.5,1.2-1.4c0.4-0.9,0.6-2.7,0.6-5C264.8,35.9,264.6,34.1,264.3,33.4z M241.3,94.4l4.8,0.1c2.2,0,3.9,0.2,5.3,0.6 c1,0.3,1.8,1,2.5,1.9c0.7,0.9,1.2,1.8,1.5,2.7c0.3,0.9,0.4,1.8,0.4,2.8c0,1.7-0.7,3.5-2.1,5.3c-2.2,2.8-5.1,4.5-9,5.2 c-1.2,0.2-2.2,0.2-2.8,0.2c-2.2,0-4.3-0.4-6.2-1.3c-1.9-0.9-3.2-2.1-4.1-3.6c-0.8-1.5-1.2-3-1.2-4.6c0-2.9,0.7-5.2,2.1-6.9 C234.2,95.3,237,94.4,241.3,94.4z M247.1,62.2c-1.2,2.6-2.8,3.9-4.5,3.9c-0.9,0-1.8-0.3-2.7-0.9c-0.9-0.6-1.6-1.4-2.1-2.3 c-0.5-0.9-1-2.3-1.4-4c-0.3-1.1-0.5-2.4-0.6-3.9c-0.2-3.6-0.3-5.9-0.3-7.1c0-4.4,0.5-7.9,1.6-10.5c1-2.6,2.1-4.1,3.4-4.5 c1.2-0.2,1.9-0.4,2.2-0.4c2,0,3.6,1.2,4.7,3.7c1.1,2.5,1.7,7.2,1.7,14.3C249,55.7,248.3,59.7,247.1,62.2z"></path> <path fill="#006835" d="M294.2,73.4c-1,0.7-2.1,1.3-3.3,1.7c-0.7,0.2-2,0.3-4,0.3l-2.4-1.2c-1.1-0.6-2.1-1.6-3.1-3 c-1-1.4-1.9-3-2.6-5c-0.7-1.9-1.2-4.2-1.5-6.7c-0.4-2.5-0.5-5-0.5-7.3c0-0.4,0-1,0.1-1.6h3.4c2.6-0.1,4-0.1,4.2-0.1 c0.6,0,1.6,0.1,3.2,0.4c4,0.4,6.6,0.5,7.9,0.5l4.4,0.1c0-3.4-0.4-6.3-0.9-8.7c-0.6-2.4-1.3-4.5-2.2-6.2c-0.9-1.8-2.1-3.5-3.6-5.2 c-1-1.2-2.3-2.1-3.8-2.8c-1.5-0.7-3.5-1-5.9-1c-1.1,0-2.5,0.4-4.2,1.3c-1.3,0.7-2.8,2-4.5,4c-1.7,2-3.2,4.8-4.7,8.4 c-0.5,1.2-1.1,3.7-1.8,7.5c-0.3,3.1-0.5,6.5-0.5,10.4c0,2,0.3,4.7,1,8c0.5,2.6,1.2,5.1,2.2,7.5c1,2.4,2.2,4.5,3.6,6.1 c1.4,1.6,3,2.8,4.7,3.6c1.3,0.6,3,0.9,5,0.9c3,0,5.8-1,8.3-2.9c2.5-1.9,4.9-5,7.2-9.3c-0.6-0.9-1.4-1.9-2.3-3.1 C296.3,71.6,295.1,72.7,294.2,73.4z M279.6,35.7c1.4-2.6,3-3.9,4.7-3.9c1.2,0,2.4,0.6,3.5,1.9c1.1,1.2,2,3,2.5,5.3 c0.5,2.3,0.8,4.6,0.9,7.1c-0.5,0-0.8,0-1.1,0c-0.3,0-0.8,0.1-1.6,0.2c-1.1,0.1-1.9,0.2-2.5,0.2l-8.9-0.2 C277.4,41.8,278.2,38.3,279.6,35.7z"></path> </g> <g> <path fill="#006835" d="M0,95.7h8.2v2.1H2.6v3.3h4.2v2.1H2.6v5.5H0V95.7z"></path> <path fill="#006835" d="M18.1,106.3h-5.3l-0.9,2.5H9.2L14,95.7H17l4.7,13.1H19L18.1,106.3z M15.5,98.7l-1.9,5.5h3.8L15.5,98.7z"></path> <path fill="#006835" d="M28.5,95.7c3.2,0,4.8,1.8,4.8,4c0,1.6-0.9,3.2-3,3.8l3.2,5.3h-3.1l-2.9-5.1h-1.2v5.1h-2.7V95.7H28.5z M28.4,97.9h-2.2v3.8h2.2c1.5,0,2.1-0.8,2.1-1.9C30.6,98.6,29.9,97.9,28.4,97.9z"></path> <path fill="#006835" d="M35.7,95.7h3l4.2,9.7l4.2-9.7h3v13.1h-2.6v-8.5l-3.5,8.5h-2l-3.6-8.5v8.5h-2.6L35.7,95.7L35.7,95.7z"></path> <path fill="#006835" d="M60.8,106.3h-5.3l-0.9,2.5h-2.8l4.7-13.1h3.1l4.7,13.1h-2.8L60.8,106.3z M58.2,98.7l-1.9,5.5h3.8 L58.2,98.7z"></path> <path fill="#006835" d="M72.3,95.5c2.9,0,5.3,1.5,6.2,4.2h-3c-0.6-1.2-1.8-1.9-3.2-1.9c-2.3,0-4,1.7-4,4.3c0,2.6,1.7,4.3,4,4.3 c1.4,0,2.6-0.6,3.2-1.9h3c-0.9,2.7-3.3,4.2-6.2,4.2c-3.8,0-6.7-2.8-6.7-6.7C65.6,98.3,68.5,95.5,72.3,95.5z"></path> <path fill="#006835" d="M80.8,95.7h2.6v13.1h-2.6V95.7z"></path> <path fill="#006835" d="M94.1,106.3h-5.3l-0.9,2.5h-2.8L90,95.7h3.1l4.7,13.1H95L94.1,106.3z M91.5,98.7l-1.9,5.5h3.8L91.5,98.7z"></path> <path fill="#006835" d="M99.6,101h8v2.2h-8V101z"></path> <path fill="#006835" d="M122.2,102.3c0,3.9-2.7,6.5-7,6.5h-4.6V95.7h4.6C119.5,95.7,122.2,98.3,122.2,102.3z M115.2,106.5 c2.8,0,4.4-1.6,4.4-4.3s-1.6-4.3-4.4-4.3h-1.9v8.6H115.2z"></path> <path fill="#006835" d="M129.2,95.7c3.2,0,4.8,1.8,4.8,4c0,1.6-0.9,3.2-3,3.8l3.2,5.3H131l-2.9-5.1h-1.2v5.1h-2.6V95.7H129.2z M129.1,97.9h-2.2v3.8h2.2c1.5,0,2.1-0.8,2.1-1.9C131.2,98.6,130.5,97.9,129.1,97.9z"></path> <path fill="#006835" d="M142.5,108.9c-3.7,0-6.8-2.8-6.8-6.7c0-3.9,3-6.7,6.8-6.7c3.8,0,6.8,2.8,6.8,6.7 C149.2,106.1,146.2,108.9,142.5,108.9z M142.5,106.6c2.4,0,4-1.7,4-4.4c0-2.7-1.7-4.3-4-4.3c-2.4,0-4,1.7-4,4.3 C138.4,104.9,140.1,106.6,142.5,106.6z"></path> <path fill="#006835" d="M163.4,99.6h-3c-0.6-1.1-1.7-1.7-3.1-1.7c-2.4,0-4,1.7-4,4.3c0,2.7,1.7,4.3,4.1,4.3c2,0,3.3-1.2,3.7-3 h-4.5v-2h7.2v2.3c-0.5,2.7-2.9,5.1-6.5,5.1c-3.8,0-6.8-2.8-6.8-6.7c0-3.9,2.9-6.7,6.7-6.7C160.2,95.5,162.6,97,163.4,99.6z"></path> <path fill="#006835" d="M165.7,95.7h2.6v8.1c0,1.8,1,2.7,2.7,2.7c1.7,0,2.7-0.9,2.7-2.7v-8.1h2.7v8.1c0,3.4-2.5,5.1-5.4,5.1 c-2.9,0-5.3-1.7-5.3-5.1L165.7,95.7L165.7,95.7z"></path> <path fill="#006835" d="M186.6,97.8h-5v3.3h4.4v2.1h-4.4v3.5h5v2.1h-7.7V95.7h7.7V97.8z"></path> <path fill="#006835" d="M193.9,95.7c3.2,0,4.8,1.8,4.8,4c0,1.6-0.9,3.2-3,3.8l3.2,5.3h-3.1l-2.9-5.1h-1.2v5.1H189V95.7H193.9z M193.8,97.9h-2.2v3.8h2.2c1.5,0,2.1-0.8,2.1-1.9C196,98.6,195.3,97.9,193.8,97.9z"></path> <path fill="#006835" d="M201.1,95.7h2.6v13.1h-2.6V95.7z"></path> <path fill="#006835" d="M214.4,106.3h-5.3l-0.9,2.5h-2.8l4.7-13.1h3.1l4.7,13.1h-2.8L214.4,106.3z M211.8,98.7l-1.9,5.5h3.8 L211.8,98.7z"></path> </g> </g> </svg> 